<svg width="24" height="24" viewBox="0 0 24 24" fill="none" xmlns="http://www.w3.org/2000/svg">
<path d="M7 14.25H3C2.58579 14.25 2.25 14.5858 2.25 15V20C2.25 20.4142 2.58579 20.75 3 20.75H7C7.41421 20.75 7.75 20.4142 7.75 20V15C7.75 14.5858 7.41421 14.25 7 14.25Z" fill="black"/>
<path d="M14 11.25H10C9.58579 11.25 9.25 11.5858 9.25 12V20C9.25 20.4142 9.58579 20.75 10 20.75H14C14.4142 20.75 14.75 20.4142 14.75 20V12C14.75 11.5858 14.4142 11.25 14 11.25Z" fill="black"/>
<path d="M21 7.25H17C16.5858 7.25 16.25 7.58579 16.25 8V20C16.25 20.4142 16.5858 20.75 17 20.75H21C21.4142 20.75 21.75 20.4142 21.75 20V8C21.75 7.58579 21.4142 7.25 21 7.25Z" fill="black"/>
<path d="M22 22.75H2C1.80109 22.75 1.61032 22.671 1.46967 22.5303C1.32902 22.3897 1.25 22.1989 1.25 22C1.25 21.8011 1.32902 21.6103 1.46967 21.4697C1.61032 21.329 1.80109 21.25 2 21.25H22C22.1989 21.25 22.3897 21.329 22.5303 21.4697C22.671 21.6103 22.75 21.8011 22.75 22C22.75 22.1989 22.671 22.3897 22.5303 22.5303C22.3897 22.671 22.1989 22.75 22 22.75Z" fill="black"/>
<path d="M19 5.74994C18.8019 5.74735 18.6126 5.6675 18.4725 5.52741C18.3324 5.38731 18.2526 5.19805 18.25 4.99994V2.74994H16C15.8011 2.74994 15.6103 2.67092 15.4697 2.53027C15.329 2.38962 15.25 2.19885 15.25 1.99994C15.25 1.80103 15.329 1.61026 15.4697 1.46961C15.6103 1.32896 15.8011 1.24994 16 1.24994H19C19.1981 1.25253 19.3874 1.33238 19.5275 1.47247C19.6676 1.61257 19.7474 1.80183 19.75 1.99994V4.99994C19.7474 5.19805 19.6676 5.38731 19.5275 5.52741C19.3874 5.6675 19.1981 5.74735 19 5.74994Z" fill="black"/>
<path d="M5 10.75C4.84497 10.7509 4.69346 10.7038 4.56632 10.6151C4.43918 10.5263 4.34265 10.4004 4.29002 10.2546C4.23739 10.1088 4.23125 9.95021 4.27243 9.80075C4.31362 9.65128 4.40011 9.51826 4.52 9.41997L10.52 4.41997C10.6585 4.299 10.8361 4.23233 11.02 4.23233C11.2039 4.23233 11.3815 4.299 11.52 4.41997L13.05 5.99997L18.52 1.42997C18.5962 1.36431 18.6845 1.31429 18.78 1.28278C18.8755 1.25126 18.9763 1.23887 19.0766 1.24629C19.1769 1.25372 19.2747 1.28083 19.3645 1.32607C19.4543 1.37131 19.5343 1.4338 19.6 1.50997C19.6657 1.58614 19.7157 1.67449 19.7472 1.76999C19.7787 1.86548 19.7911 1.96625 19.7837 2.06654C19.7762 2.16683 19.7491 2.26467 19.7039 2.35448C19.6587 2.44429 19.5962 2.52431 19.52 2.58997L13.52 7.58997C13.3825 7.71296 13.2045 7.78095 13.02 7.78095C12.8355 7.78095 12.6575 7.71296 12.52 7.58997L11 5.99997L5.48 10.58C5.34352 10.6887 5.17451 10.7486 5 10.75Z" fill="black"/>
</svg>
