<svg width="18" height="18" viewBox="0 0 18 18" fill="none" xmlns="http://www.w3.org/2000/svg">
<path d="M3.375 4.625H0.875C0.70924 4.625 0.550268 4.69085 0.433058 4.80806C0.315848 4.92527 0.25 5.08424 0.25 5.25V7.125H4V5.25C4 5.08424 3.93415 4.92527 3.81694 4.80806C3.69973 4.69085 3.54076 4.625 3.375 4.625Z" fill="#727272"/>
<path d="M0.25 8.375H4V14H0.25V8.375Z" fill="#727272"/>
<path d="M0.25 17.125C0.25 17.2908 0.315848 17.4497 0.433058 17.5669C0.550268 17.6842 0.70924 17.75 0.875 17.75H3.375C3.54076 17.75 3.69973 17.6842 3.81694 17.5669C3.93415 17.4497 4 17.2908 4 17.125V15.25H0.25V17.125Z" fill="#727272"/>
<path d="M8.375 0.25H5.875C5.70924 0.25 5.55027 0.315848 5.43306 0.433058C5.31585 0.550268 5.25 0.70924 5.25 0.875V2.75H9V0.875C9 0.70924 8.93415 0.550268 8.81694 0.433058C8.69973 0.315848 8.54076 0.25 8.375 0.25Z" fill="#727272"/>
<path d="M5.25 4H9V14H5.25V4Z" fill="#727272"/>
<path d="M5.25 17.125C5.25 17.2908 5.31585 17.4497 5.43306 17.5669C5.55027 17.6842 5.70924 17.75 5.875 17.75H8.375C8.54076 17.75 8.69973 17.6842 8.81694 17.5669C8.93415 17.4497 9 17.2908 9 17.125V15.25H5.25V17.125Z" fill="#727272"/>
<path d="M14.1688 3.0375C14.1262 2.87771 14.0221 2.74129 13.8792 2.65812C13.7363 2.57495 13.5662 2.5518 13.4063 2.59375L10.9875 3.21875C10.8286 3.26332 10.6938 3.36892 10.6125 3.5125C10.5714 3.58367 10.5447 3.66226 10.5339 3.74377C10.5232 3.82528 10.5287 3.9081 10.55 3.9875L11.0375 5.79375L14.6563 4.825L14.1688 3.0375Z" fill="#727272"/>
<path d="M11.3627 7.01923L14.9791 6.04959L16.9216 13.2946L13.3052 14.2642L11.3627 7.01923Z" fill="#727272"/>
<path d="M17.75 16.3188L17.2625 14.5063L13.6375 15.475L14.125 17.2875C14.1616 17.4239 14.2433 17.5438 14.3568 17.6278C14.4703 17.7118 14.6089 17.7548 14.75 17.75H14.9125L17.325 17.125C17.4844 17.0783 17.6205 16.9735 17.7062 16.8313C17.7495 16.7538 17.7757 16.6681 17.7833 16.5797C17.7908 16.4914 17.7795 16.4024 17.75 16.3188Z" fill="#727272"/>
</svg>
