<svg width="28" height="29" viewBox="0 0 28 29" fill="none" xmlns="http://www.w3.org/2000/svg">
<path d="M19.8333 24.4167H8.16665C4.66665 24.4167 2.33331 22.6667 2.33331 18.5833V10.4167C2.33331 6.33333 4.66665 4.58333 8.16665 4.58333H19.8333C23.3333 4.58333 25.6666 6.33333 25.6666 10.4167V18.5833C25.6666 22.6667 23.3333 24.4167 19.8333 24.4167Z" stroke="#006EE9" stroke-width="1.5" stroke-miterlimit="10" stroke-linecap="round" stroke-linejoin="round"/>
<path d="M14 18C15.933 18 17.5 16.433 17.5 14.5C17.5 12.567 15.933 11 14 11C12.067 11 10.5 12.567 10.5 14.5C10.5 16.433 12.067 18 14 18Z" stroke="#006EE9" stroke-width="1.5" stroke-miterlimit="10" stroke-linecap="round" stroke-linejoin="round"/>
<path d="M2.33331 11H3.49998C6.99998 11 8.16665 9.83334 8.16665 6.33334V5.16667" stroke="#006EE9" stroke-width="1.5" stroke-miterlimit="10" stroke-linecap="round" stroke-linejoin="round"/>
<path d="M25.6666 11H24.5C21 11 19.8333 9.83334 19.8333 6.33334V5.16667" stroke="#006EE9" stroke-width="1.5" stroke-miterlimit="10" stroke-linecap="round" stroke-linejoin="round"/>
<path d="M2.33331 18H3.49998C6.99998 18 8.16665 19.1667 8.16665 22.6667V23.8333" stroke="#006EE9" stroke-width="1.5" stroke-miterlimit="10" stroke-linecap="round" stroke-linejoin="round"/>
<path d="M25.6666 18H24.5C21 18 19.8333 19.1667 19.8333 22.6667V23.8333" stroke="#006EE9" stroke-width="1.5" stroke-miterlimit="10" stroke-linecap="round" stroke-linejoin="round"/>
</svg>
