<svg width="12" height="8" viewBox="0 0 12 8" fill="none" xmlns="http://www.w3.org/2000/svg">
<path d="M11.5887 0.891327L11.366 3.0374C11.3402 3.27298 11.0513 3.37421 10.8856 3.20856L10.3592 2.68216L7.04442 5.99697C6.83644 6.20495 6.47018 6.20495 6.26219 5.99697L4.43639 4.17116L1.35165 7.25774C1.24489 7.36448 1.10318 7.41971 0.961456 7.41971C0.819732 7.41971 0.678018 7.36448 0.571264 7.25774C0.355925 7.04239 0.355925 6.6927 0.571264 6.47551L4.04619 3.00058C4.25418 2.7926 4.62044 2.7926 4.82658 3.00058L6.65423 4.82639L9.57885 1.90178L8.96225 1.2852C8.79478 1.11771 8.896 0.828755 9.13159 0.804827L11.2777 0.582118C11.4562 0.561875 11.6071 0.7128 11.5887 0.891327Z" fill="#00A03E"/>
</svg>
